<svg id="Capa_1" data-name="Capa 1" xmlns="http://www.w3.org/2000/svg" viewBox="0 0 441.53 441.53"><defs><style>.cls-1{stroke:#fff;stroke-miterlimit:10;stroke-width:3px;}</style></defs><title>iconBTT</title><path class="cls-1" d="M409.13,109.2a218.26,218.26,0,0,0-79.8-79.79Q278.95,0,219.27,0T109.21,29.41a218.26,218.26,0,0,0-79.8,79.79Q0,159.6,0,219.27T29.41,329.33a218.29,218.29,0,0,0,79.8,79.8q50.39,29.4,110.06,29.4t110.06-29.4a218.36,218.36,0,0,0,79.8-79.8q29.4-50.4,29.4-110.06T409.13,109.2ZM361.74,259.52l-29.12,29.13a17.94,17.94,0,0,1-25.7,0L219.27,201l-87.65,87.66a17.93,17.93,0,0,1-25.69,0L76.81,259.52a17.92,17.92,0,0,1,0-25.7L206.43,104.21a17.91,17.91,0,0,1,25.69,0L361.74,233.82a17.94,17.94,0,0,1,0,25.7Z" transform="translate(1.5 1.5)"/></svg>